<?xml version="1.0" encoding="UTF-8"?><svg id="a" xmlns="http://www.w3.org/2000/svg" viewBox="0 0 150 150"><defs><style>.b{fill:#eceaec;}.c{fill:#13bf6d;}.d{fill:#f0c020;}.e{fill:#7f92a5;}.f{fill:#bed8fb;}.g{fill:#fb5e3d;}</style></defs><path d="M141.38,9.4H8.62C3.86,9.4,0,13.26,0,18.01V110.76c0,4.75,3.86,8.62,8.62,8.62H60.22l-2.56,18.32h-9.15c-.8,0-1.45,.65-1.45,1.45s.65,1.45,1.45,1.45h51.65c.8,0,1.45-.65,1.45-1.45s-.65-1.45-1.45-1.45h-7.8l-2.69-18.32h51.73c4.75,0,8.62-3.87,8.62-8.62V18.01c0-4.75-3.86-8.62-8.62-8.62ZM60.58,137.7l2.56-18.32h23.58l2.69,18.32h-28.83Zm86.52-26.94c0,3.15-2.56,5.72-5.72,5.72H8.62c-3.15,0-5.72-2.56-5.72-5.72v-10.32H147.1v10.32Zm-15.42-67.37v54.15H18.86V43.39h112.82Zm-112.82-2.9v-12.54c0-.88,.71-1.59,1.59-1.59h109.65c.88,0,1.59,.71,1.59,1.59v12.54H18.86Zm128.24,57.05h-12.52V27.95c0-2.48-2.01-4.49-4.49-4.49H20.45c-2.48,0-4.49,2.01-4.49,4.49V97.54H2.9V18.01c0-3.15,2.56-5.72,5.72-5.72H141.38c3.15,0,5.72,2.56,5.72,5.72V97.54Z"/><polygon class="e" points="89.41 137.7 60.58 137.7 63.15 119.38 86.73 119.38 89.41 137.7"/><path class="e" d="M147.1,100.45v10.32c0,3.15-2.56,5.72-5.72,5.72H8.62c-3.15,0-5.72-2.56-5.72-5.72v-10.32H147.1Z"/><path class="g" d="M130.09,26.36H20.45c-.88,0-1.59,.71-1.59,1.59v12.54h112.82v-12.54c0-.88-.71-1.59-1.59-1.59Zm-27.1,9.53c-1.13,0-2.04-.92-2.04-2.05s.91-2.04,2.04-2.04,2.04,.92,2.04,2.04-.91,2.05-2.04,2.05Zm10.24,0c-1.13,0-2.04-.92-2.04-2.05s.92-2.04,2.04-2.04,2.05,.92,2.05,2.04-.92,2.05-2.05,2.05Zm10.24,0c-1.13,0-2.05-.92-2.05-2.05s.92-2.04,2.05-2.04,2.04,.92,2.04,2.04-.92,2.05-2.04,2.05Z"/><path class="b" d="M18.86,43.39v54.15h112.82V43.39H18.86Zm27.7,46.14c0,1.21-.99,2.2-2.2,2.2h-11.61c-1.21,0-2.19-.99-2.19-2.2v-4.32c0-1.21,.99-2.19,2.19-2.19h11.61c1.21,0,2.2,.98,2.2,2.19v4.32Zm-14.16-20.92h23.34c.8,0,1.45,.65,1.45,1.45s-.65,1.45-1.45,1.45h-23.34c-.8,0-1.45-.65-1.45-1.45s.65-1.45,1.45-1.45Zm-1.45-4.23c0-.8,.65-1.45,1.45-1.45h29.49c.8,0,1.45,.65,1.45,1.45s-.65,1.45-1.45,1.45h-29.49c-.8,0-1.45-.65-1.45-1.45Zm1.45,9.91h11.73c.8,0,1.45,.65,1.45,1.45s-.65,1.45-1.45,1.45h-11.73c-.8,0-1.45-.65-1.45-1.45s.65-1.45,1.45-1.45Zm33.02,15.24c0,1.21-.99,2.2-2.19,2.2h-11.61c-1.21,0-2.19-.99-2.19-2.2v-4.32c0-1.21,.98-2.19,2.19-2.19h11.61c1.21,0,2.19,.98,2.19,2.19v4.32Zm2.59-33.8c0,1.21-.99,2.19-2.19,2.19H32.75c-1.21,0-2.19-.98-2.19-2.19v-4.32c0-1.21,.99-2.2,2.19-2.2h33.06c1.21,0,2.19,.99,2.19,2.2v4.32Zm44.06,20.85c2.69,5.31,3.78,9.99,1.43,11.77-.55,.42-1.2,.61-1.94,.61-2.97,0-7.26-3.18-11.46-7.53-1.63,1.75-3.24,3.28-4.77,4.51-2.69,2.16-4.9,3.25-6.61,3.25-.74,0-1.38-.2-1.93-.6-1.82-1.33-1.83-4.34-.03-8.94,.38-.97,.84-1.99,1.35-3.04-5.95-1.07-10.42-3.03-10.42-6.02s4.37-4.91,10.25-5.98c-.5-.99-.95-1.94-1.32-2.85-1.88-4.57-1.92-7.57-.12-8.94,1.8-1.36,4.69-.52,8.58,2.51,1.54,1.21,3.19,2.72,4.84,4.43,1.62-1.73,3.23-3.26,4.75-4.49,3.85-3.09,6.71-3.99,8.54-2.65,2.4,1.76,1.35,6.52-1.32,11.95,5.96,1.07,10.43,3.04,10.43,6.02s-4.38,4.91-10.25,5.99Z"/><path class="f" d="M147.1,18.01V97.54h-12.52V27.95c0-2.48-2.01-4.49-4.49-4.49H20.45c-2.48,0-4.49,2.01-4.49,4.49V97.54H2.9V18.01c0-3.15,2.56-5.72,5.72-5.72H141.38c3.15,0,5.72,2.56,5.72,5.72Z"/><path d="M65.81,49.21H32.75c-1.21,0-2.19,.99-2.19,2.2v4.32c0,1.21,.99,2.19,2.19,2.19h33.06c1.21,0,2.19-.98,2.19-2.19v-4.32c0-1.21-.99-2.2-2.19-2.2Zm-.71,5.81h-31.65v-2.91h31.65v2.91Z"/><rect class="d" x="33.46" y="52.11" width="31.65" height="2.91"/><path d="M44.36,83.02h-11.61c-1.21,0-2.19,.98-2.19,2.19v4.32c0,1.21,.99,2.2,2.19,2.2h11.61c1.21,0,2.2-.99,2.2-2.2v-4.32c0-1.21-.99-2.19-2.2-2.19Zm-.7,5.81h-10.2v-2.91h10.2v2.91Z"/><rect class="d" x="33.46" y="85.92" width="10.2" height="2.91"/><path d="M63.22,83.02h-11.61c-1.21,0-2.19,.98-2.19,2.19v4.32c0,1.21,.98,2.2,2.19,2.2h11.61c1.21,0,2.19-.99,2.19-2.2v-4.32c0-1.21-.99-2.19-2.19-2.19Zm-.71,5.81h-10.19v-2.91h10.19v2.91Z"/><rect class="d" x="52.32" y="85.92" width="10.19" height="2.91"/><path d="M125.51,33.85c0,1.13-.92,2.05-2.04,2.05s-2.05-.92-2.05-2.05,.92-2.04,2.05-2.04,2.04,.92,2.04,2.04Z"/><path d="M115.28,33.85c0,1.13-.92,2.05-2.05,2.05s-2.04-.92-2.04-2.05,.92-2.04,2.04-2.04,2.05,.92,2.05,2.04Z"/><path d="M105.04,33.85c0,1.13-.91,2.05-2.04,2.05s-2.04-.92-2.04-2.05,.91-2.04,2.04-2.04,2.04,.92,2.04,2.04Z"/><path d="M122.31,70.6c0-2.98-4.47-4.95-10.43-6.02,2.67-5.43,3.72-10.18,1.32-11.95-1.82-1.34-4.69-.45-8.54,2.65-1.52,1.22-3.13,2.75-4.75,4.49-1.65-1.72-3.3-3.23-4.84-4.43-3.89-3.03-6.78-3.88-8.58-2.51-1.8,1.37-1.76,4.37,.12,8.94,.38,.91,.82,1.87,1.32,2.85-5.87,1.07-10.25,3.03-10.25,5.98s4.46,4.95,10.42,6.02c-.52,1.05-.97,2.07-1.35,3.04-1.8,4.6-1.79,7.6,.03,8.94,.55,.41,1.19,.6,1.93,.6,1.71,0,3.92-1.09,6.61-3.25,1.53-1.23,3.14-2.76,4.77-4.51,4.2,4.35,8.49,7.53,11.46,7.53,.74,0,1.39-.19,1.94-.61,2.35-1.78,1.26-6.45-1.43-11.77,5.87-1.07,10.25-3.03,10.25-5.99Zm-15.83-13.06c2.73-2.2,4.22-2.62,4.77-2.62,.12,0,.2,.02,.23,.05,.64,.47,.08,3.88-2.62,9.16-1.75-.21-3.59-.36-5.44-.44-.5-.62-1.02-1.21-1.53-1.79,1.57-1.69,3.13-3.18,4.6-4.36Zm.27,15.61c.24,.39,.49,.77,.71,1.15-.53,.06-1.08,.1-1.64,.15,.31-.43,.62-.86,.93-1.3Zm-.92-6.41c.52,.04,1.02,.09,1.51,.13-.2,.35-.42,.7-.64,1.06-.29-.4-.58-.79-.88-1.19Zm-17.58-11.61s.12-.05,.24-.05c.56,0,2.05,.41,4.79,2.54,1.49,1.16,3.08,2.62,4.69,4.31-.49,.57-.98,1.17-1.46,1.77-1.89,.08-3.76,.23-5.55,.45-.65-1.21-1.22-2.39-1.67-3.5-1.63-3.95-1.23-5.38-1.04-5.52Zm5,12.91c-.25-.39-.48-.77-.71-1.15,.53-.05,1.08-.1,1.64-.15-.31,.43-.63,.86-.93,1.3Zm.92,6.41c-.52-.04-1.03-.09-1.51-.14,.21-.35,.41-.7,.63-1.06,.29,.4,.59,.79,.88,1.2Zm-13.58-3.86c0-.79,3.04-2.34,8.81-3.29,.64,1.1,1.34,2.23,2.09,3.36-.7,1.1-1.35,2.18-1.95,3.24-5.87-.94-8.95-2.51-8.95-3.31Zm12.9,13.09c-3.33,2.69-4.81,2.7-5,2.56-.19-.13-.61-1.56,.96-5.54,.45-1.15,1.02-2.38,1.68-3.65,1.76,.21,3.59,.35,5.44,.44,.51,.61,1.02,1.21,1.54,1.8-1.58,1.71-3.14,3.2-4.62,4.39Zm6.5-9.01c-.69,0-1.36-.01-2.01-.02-.41-.52-.82-1.04-1.25-1.6-.61-.8-1.19-1.61-1.75-2.41,.55-.81,1.12-1.62,1.72-2.44,.41-.56,.82-1.11,1.24-1.65,.67-.02,1.35-.03,2.05-.03s1.36,.01,2.01,.03c.41,.52,.82,1.04,1.22,1.57,.63,.84,1.22,1.65,1.78,2.44-.54,.8-1.11,1.62-1.73,2.47-.41,.55-.82,1.09-1.22,1.62-.67,.02-1.35,.03-2.05,.03Zm11.73,11.37c-.72,.55-4.57-1.43-9.71-6.78,.49-.57,.98-1.16,1.46-1.76,1.89-.09,3.75-.24,5.54-.46,2.74,5.16,3.34,8.52,2.71,9Zm-1.14-12.16c-.64-1.11-1.35-2.24-2.08-3.36,.68-1.08,1.34-2.16,1.94-3.24,5.87,.95,8.96,2.52,8.96,3.31s-3.04,2.34-8.82,3.29Z"/><path class="c" d="M94.17,74.46c-.52-.04-1.03-.09-1.51-.14,.21-.35,.41-.7,.63-1.06,.29,.4,.59,.79,.88,1.2Z"/><path class="c" d="M94.18,66.75c-.31,.43-.63,.86-.93,1.3-.25-.39-.48-.77-.71-1.15,.53-.05,1.08-.1,1.64-.15Z"/><path class="c" d="M107.35,66.88c-.2,.35-.42,.7-.64,1.06-.29-.4-.58-.79-.88-1.19,.52,.04,1.02,.09,1.51,.13Z"/><path class="c" d="M107.47,74.31c-.53,.06-1.08,.1-1.64,.15,.31-.43,.62-.86,.93-1.3,.24,.39,.49,.77,.71,1.15Z"/><path class="c" d="M103.24,68.12c-.41-.53-.82-1.06-1.22-1.57-.66-.02-1.32-.03-2.01-.03s-1.39,.01-2.05,.03c-.42,.54-.83,1.09-1.24,1.65-.6,.82-1.17,1.63-1.72,2.44,.56,.81,1.14,1.61,1.75,2.41,.42,.56,.84,1.09,1.25,1.6,.66,.01,1.32,.02,2.01,.02s1.39-.01,2.05-.03c.41-.53,.82-1.07,1.22-1.62,.62-.85,1.2-1.67,1.73-2.47-.55-.79-1.14-1.6-1.78-2.44Zm-3.24,4.24c-.97,0-1.76-.78-1.76-1.76s.79-1.76,1.76-1.76,1.76,.79,1.76,1.76-.79,1.76-1.76,1.76Z"/><path class="c" d="M119.41,70.6c0,.79-3.04,2.34-8.82,3.29-.64-1.11-1.35-2.24-2.08-3.36,.68-1.08,1.34-2.16,1.94-3.24,5.87,.95,8.96,2.52,8.96,3.31Z"/><path class="c" d="M108.86,64.14c-1.75-.21-3.59-.36-5.44-.44-.5-.62-1.02-1.21-1.53-1.79,1.57-1.69,3.13-3.18,4.6-4.36,2.73-2.2,4.22-2.62,4.77-2.62,.12,0,.2,.02,.23,.05,.64,.47,.08,3.88-2.62,9.16Z"/><path class="c" d="M97.98,61.93c-.49,.57-.98,1.17-1.46,1.77-1.89,.08-3.76,.23-5.55,.45-.65-1.21-1.22-2.39-1.67-3.5-1.63-3.95-1.23-5.38-1.04-5.52,.03-.03,.12-.05,.24-.05,.56,0,2.05,.41,4.79,2.54,1.49,1.16,3.08,2.62,4.69,4.31Z"/><path class="c" d="M91.5,70.67c-.7,1.1-1.35,2.18-1.95,3.24-5.87-.94-8.95-2.51-8.95-3.31s3.04-2.34,8.81-3.29c.64,1.1,1.34,2.23,2.09,3.36Z"/><path class="c" d="M98.12,79.3c-1.58,1.71-3.14,3.2-4.62,4.39-3.33,2.69-4.81,2.7-5,2.56-.19-.13-.61-1.56,.96-5.54,.45-1.15,1.02-2.38,1.68-3.65,1.76,.21,3.59,.35,5.44,.44,.51,.61,1.02,1.21,1.54,1.8Z"/><path class="c" d="M111.73,86.04c-.72,.55-4.57-1.43-9.71-6.78,.49-.57,.98-1.16,1.46-1.76,1.89-.09,3.75-.24,5.54-.46,2.74,5.16,3.34,8.52,2.71,9Z"/><circle cx="100" cy="70.6" r="1.76"/><path d="M63.34,64.38c0,.8-.65,1.45-1.45,1.45h-29.49c-.8,0-1.45-.65-1.45-1.45s.65-1.45,1.45-1.45h29.49c.8,0,1.45,.65,1.45,1.45Z"/><path d="M57.19,70.07c0,.8-.65,1.45-1.45,1.45h-23.34c-.8,0-1.45-.65-1.45-1.45s.65-1.45,1.45-1.45h23.34c.8,0,1.45,.65,1.45,1.45Z"/><path d="M45.57,75.75c0,.8-.65,1.45-1.45,1.45h-11.73c-.8,0-1.45-.65-1.45-1.45s.65-1.45,1.45-1.45h11.73c.8,0,1.45,.65,1.45,1.45Z"/></svg>