<?xml version="1.0" encoding="UTF-8"?><svg id="a" xmlns="http://www.w3.org/2000/svg" viewBox="0 0 150 150"><defs><style>.b{fill:#eceaec;}.c{fill:#aab2bd;}.d{fill:#ffeaa7;}.e{fill:#f0c020;}.f{fill:#fb5e3d;}</style></defs><path d="M123.02,35.66h-5.86V8.91c0-4.91-4-8.91-8.91-8.91H41.51c-4.91,0-8.91,3.99-8.91,8.91v26.75h-5.61c-2.37,0-4.3,1.93-4.3,4.3v59.75c0,2.27,1.85,4.11,4.12,4.11h5.8v37.26c0,4.91,3.99,8.91,8.91,8.91H108.24c4.91,0,8.91-4,8.91-8.91v-37.26h4.97c2.87,0,5.19-2.33,5.19-5.19V39.96c0-2.37-1.93-4.3-4.3-4.3ZM58.1,3.28h33.55v1.42c0,1.96-1.59,3.56-3.56,3.56h-26.44c-1.96,0-3.56-1.59-3.56-3.56v-1.42Zm-22.22,5.63c0-3.1,2.53-5.63,5.63-5.63h13.31v1.42c0,3.77,3.06,6.83,6.83,6.83h26.44c3.77,0,6.83-3.06,6.83-6.83v-1.42h13.31c3.1,0,5.63,2.53,5.63,5.63v26.75H35.88V8.91ZM113.88,141.09c0,3.11-2.53,5.63-5.63,5.63H41.51c-3.1,0-5.63-2.53-5.63-5.63v-11.16H113.88v11.16Zm0-14.44H35.88v-22.81H113.88v22.81Zm-37.26-26.09c1.14-6.2,6.58-10.93,13.11-10.93s11.97,4.72,13.11,10.93h-26.21Zm29.54,0c-1.17-8.02-8.09-14.21-16.44-14.21s-15.27,6.19-16.44,14.21h-12.02c.75-.23,1.32-.86,1.44-1.68,.31-2.03,.84-4.01,1.58-5.9,.38-.97,0-2.05-.9-2.57l-1.89-1.09,2.3-3.98,1.9,1.1c.9,.51,2.02,.3,2.67-.51,1.27-1.59,2.72-3.05,4.32-4.32,.81-.65,1.02-1.78,.51-2.68l-1.1-1.89,3.99-2.3,1.08,1.88c.52,.91,1.6,1.28,2.58,.9,1.9-.75,3.88-1.28,5.9-1.58,1.03-.15,1.78-1.02,1.78-2.06v-2.18h4.6v2.18c0,1.04,.75,1.91,1.78,2.06,2.01,.3,4,.83,5.9,1.57,.97,.39,2.05,0,2.57-.89l1.09-1.89,3.99,2.31-1.09,1.89c-.52,.9-.31,2.03,.51,2.68,1.6,1.27,3.05,2.72,4.32,4.32,.66,.81,1.78,1.03,2.68,.51l1.89-1.09,2.3,3.98-1.88,1.09c-.91,.52-1.28,1.61-.9,2.57,.74,1.89,1.27,3.87,1.58,5.9,.12,.82,.69,1.45,1.44,1.68h-12.02Zm17.88-2.01c-.34-.69-1.04-1.17-1.86-1.17h-2.36c-.29-1.58-.71-3.14-1.24-4.64l2.04-1.17c1-.58,1.34-1.86,.77-2.86l-3.49-6.04c-.28-.49-.73-.83-1.27-.98s-1.1-.07-1.59,.21l-2.04,1.18c-1.04-1.21-2.18-2.35-3.39-3.39l1.18-2.04c.28-.49,.35-1.05,.21-1.59-.14-.54-.49-.99-.98-1.27l-6.05-3.49c-.49-.28-1.04-.35-1.59-.21-.54,.14-.99,.49-1.27,.97l-1.18,2.04c-1.51-.53-3.06-.94-4.63-1.23v-2.36c0-1.15-.94-2.09-2.09-2.09h-6.98c-1.15,0-2.09,.93-2.09,2.09v2.36c-1.57,.29-3.13,.7-4.63,1.24l-1.18-2.05c-.28-.48-.73-.83-1.27-.97-.54-.14-1.1-.07-1.58,.21l-6.05,3.49c-.48,.28-.83,.73-.97,1.27-.14,.54-.07,1.1,.21,1.59l1.18,2.04c-1.22,1.04-2.35,2.18-3.39,3.39l-2.05-1.18c-.49-.28-1.05-.35-1.59-.21s-.99,.49-1.27,.98l-3.49,6.04c-.28,.49-.35,1.05-.21,1.59,.14,.54,.49,.99,.98,1.27l2.05,1.18c-.54,1.5-.95,3.06-1.24,4.64h-2.36c-1.15,0-2.09,.94-2.09,2.09v1.09H26.8c-.47,0-.84-.37-.84-.83V53.86H124.04v44.68Zm0-47.96H25.96v-10.62c0-.56,.46-1.02,1.02-1.02H123.02c.56,0,1.02,.46,1.02,1.02v10.62Z"/><path class="c" d="M91.65,3.28v1.42c0,1.96-1.59,3.56-3.56,3.56h-26.44c-1.96,0-3.56-1.59-3.56-3.56v-1.42h33.55Z"/><path class="d" d="M102.83,100.55h-26.21c1.14-6.2,6.58-10.93,13.11-10.93s11.97,4.72,13.11,10.93Z"/><path class="e" d="M118.18,100.55h-12.02c-1.17-8.02-8.09-14.21-16.44-14.21s-15.27,6.19-16.44,14.21h-12.02c.75-.23,1.32-.86,1.44-1.68,.31-2.03,.84-4.01,1.58-5.9,.38-.97,0-2.05-.9-2.57l-1.89-1.09,2.3-3.98,1.9,1.1c.9,.51,2.02,.3,2.67-.51,1.27-1.59,2.72-3.05,4.32-4.32,.81-.65,1.02-1.78,.51-2.68l-1.1-1.89,3.99-2.3,1.08,1.88c.52,.91,1.6,1.28,2.58,.9,1.9-.75,3.88-1.28,5.9-1.58,1.03-.15,1.78-1.02,1.78-2.06v-2.18h4.6v2.18c0,1.04,.75,1.91,1.78,2.06,2.01,.3,4,.83,5.9,1.57,.97,.39,2.05,0,2.57-.89l1.09-1.89,3.99,2.31-1.09,1.89c-.52,.9-.31,2.03,.51,2.68,1.6,1.27,3.05,2.72,4.32,4.32,.66,.81,1.78,1.03,2.68,.51l1.89-1.09,2.3,3.98-1.88,1.09c-.91,.52-1.28,1.61-.9,2.57,.74,1.89,1.27,3.87,1.58,5.9,.12,.82,.69,1.45,1.44,1.68Z"/><path class="d" d="M25.96,53.86v45.85c0,.46,.37,.83,.84,.83h28.38v-1.09c0-1.15,.94-2.09,2.09-2.09h2.36c.29-1.58,.7-3.14,1.24-4.64l-2.05-1.18c-.49-.28-.83-.73-.98-1.27-.14-.54-.07-1.1,.21-1.59l3.49-6.04c.28-.49,.73-.83,1.27-.98s1.1-.07,1.59,.21l2.05,1.18c1.04-1.21,2.17-2.35,3.39-3.39l-1.18-2.04c-.28-.49-.35-1.05-.21-1.59,.14-.54,.49-.99,.97-1.27l6.05-3.49c.48-.28,1.04-.35,1.58-.21,.54,.14,.99,.49,1.27,.97l1.18,2.05c1.5-.54,3.06-.95,4.63-1.24v-2.36c0-1.15,.94-2.09,2.09-2.09h6.98c1.15,0,2.09,.93,2.09,2.09v2.36c1.57,.29,3.12,.7,4.63,1.23l1.18-2.04c.28-.48,.73-.83,1.27-.97,.54-.14,1.1-.07,1.59,.21l6.05,3.49c.49,.28,.83,.73,.98,1.27,.14,.54,.07,1.1-.21,1.59l-1.18,2.04c1.21,1.04,2.35,2.18,3.39,3.39l2.04-1.18c.49-.28,1.05-.35,1.59-.21s.99,.49,1.27,.98l3.49,6.04c.58,1,.23,2.28-.77,2.86l-2.04,1.17c.53,1.5,.95,3.06,1.24,4.64h2.36c.82,0,1.52,.48,1.86,1.17V53.86H25.96Zm15.79,25.28c-.32,.32-.74,.49-1.16,.49s-.84-.16-1.15-.49l-8.09-8.08,8.04-8.04c.64-.64,1.68-.64,2.32,0,.64,.64,.64,1.68,0,2.32l-5.72,5.72,5.77,5.77c.64,.64,.64,1.68,0,2.32Zm10.5-17.26l-5.56,19.32c-.21,.72-.87,1.19-1.57,1.19-.15,0-.3-.02-.46-.07-.87-.25-1.37-1.15-1.12-2.03l5.56-19.32c.25-.87,1.16-1.38,2.03-1.13,.87,.26,1.37,1.16,1.12,2.03Zm4.4,17.26c-.32,.32-.74,.49-1.16,.49s-.83-.16-1.15-.49c-.64-.64-.64-1.68,0-2.32l5.72-5.72-5.77-5.77c-.64-.64-.64-1.68,0-2.32,.64-.64,1.68-.64,2.32,0l8.09,8.09-8.04,8.03Z"/><path class="f" d="M123.02,38.94H26.98c-.56,0-1.02,.46-1.02,1.02v10.62H124.04v-10.62c0-.56-.46-1.02-1.02-1.02Zm-23.73,7.98c-.99,0-1.79-.8-1.79-1.79s.8-1.79,1.79-1.79,1.79,.8,1.79,1.79-.8,1.79-1.79,1.79Zm8.97,0c-.99,0-1.79-.8-1.79-1.79s.8-1.79,1.79-1.79,1.79,.8,1.79,1.79-.8,1.79-1.79,1.79Zm8.97,0c-.99,0-1.79-.8-1.79-1.79s.8-1.79,1.79-1.79,1.79,.8,1.79,1.79-.8,1.79-1.79,1.79Z"/><path class="c" d="M35.88,129.92v11.16c0,3.11,2.53,5.63,5.63,5.63H108.24c3.1,0,5.63-2.53,5.63-5.63v-11.16H35.88Zm39,13.71c-3.06,0-5.54-2.48-5.54-5.54s2.49-5.54,5.54-5.54,5.54,2.49,5.54,5.54-2.49,5.54-5.54,5.54Z"/><rect class="b" x="35.88" y="103.83" width="78" height="22.81"/><path class="b" d="M113.88,8.91v26.75H35.88V8.91c0-3.1,2.53-5.63,5.63-5.63h13.31v1.42c0,3.77,3.06,6.83,6.83,6.83h26.44c3.77,0,6.83-3.06,6.83-6.83v-1.42h13.31c3.1,0,5.63,2.53,5.63,5.63Z"/><path d="M119.01,45.13c0,.99-.8,1.79-1.79,1.79s-1.79-.8-1.79-1.79,.8-1.79,1.79-1.79,1.79,.8,1.79,1.79Z"/><circle cx="108.25" cy="45.13" r="1.79"/><path d="M101.08,45.13c0,.99-.8,1.79-1.79,1.79s-1.79-.8-1.79-1.79,.8-1.79,1.79-1.79,1.79,.8,1.79,1.79Z"/><path d="M41.75,79.14c-.32,.32-.74,.49-1.16,.49s-.84-.16-1.15-.49l-8.09-8.08,8.04-8.04c.64-.64,1.68-.64,2.32,0,.64,.64,.64,1.68,0,2.32l-5.72,5.72,5.77,5.77c.64,.64,.64,1.68,0,2.32Z"/><path d="M64.69,71.11l-8.04,8.03c-.32,.32-.74,.49-1.16,.49s-.83-.16-1.15-.49c-.64-.64-.64-1.68,0-2.32l5.72-5.72-5.77-5.77c-.64-.64-.64-1.68,0-2.32,.64-.64,1.68-.64,2.32,0l8.09,8.09Z"/><path d="M52.25,61.88l-5.56,19.32c-.21,.72-.87,1.19-1.57,1.19-.15,0-.3-.02-.46-.07-.87-.25-1.37-1.15-1.12-2.03l5.56-19.32c.25-.87,1.16-1.38,2.03-1.13,.87,.26,1.37,1.16,1.12,2.03Z"/><path d="M74.88,132.56c-3.06,0-5.54,2.49-5.54,5.54s2.49,5.54,5.54,5.54,5.54-2.48,5.54-5.54-2.49-5.54-5.54-5.54Zm0,7.79c-1.25,0-2.26-1.01-2.26-2.26s1.02-2.26,2.26-2.26,2.26,1.01,2.26,2.26-1.02,2.26-2.26,2.26Z"/><path class="b" d="M77.13,138.1c0,1.25-1.02,2.26-2.26,2.26s-2.26-1.01-2.26-2.26,1.02-2.26,2.26-2.26,2.26,1.01,2.26,2.26Z"/></svg>