<?xml version="1.0" encoding="UTF-8"?><svg id="a" xmlns="http://www.w3.org/2000/svg" viewBox="0 0 150 150"><defs><style>.b{fill:#bfab99;}.c{fill:#eceaec;}.d{fill:#72c2e9;}.e{fill:#f0c020;}.f{fill:#6bdba3;}.g{fill:#fb5e3d;}</style></defs><path d="M139.18,19.57c0,1.13-.92,2.04-2.04,2.04s-2.05-.91-2.05-2.04,.92-2.04,2.05-2.04,2.04,.91,2.04,2.04Z"/><path d="M128.95,19.57c0,1.13-.92,2.04-2.05,2.04s-2.04-.91-2.04-2.04,.92-2.04,2.04-2.04,2.05,.91,2.05,2.04Z"/><path d="M118.71,19.57c0,1.13-.91,2.04-2.04,2.04s-2.05-.91-2.05-2.04,.92-2.04,2.05-2.04,2.04,.91,2.04,2.04Z"/><path d="M141.38,9.39H8.62C3.86,9.39,0,13.26,0,18.01V110.76c0,4.75,3.86,8.62,8.62,8.62H60.22l-2.57,18.32h-9.14c-.81,0-1.45,.65-1.45,1.45s.64,1.45,1.45,1.45h51.65c.8,0,1.45-.65,1.45-1.45s-.65-1.45-1.45-1.45h-7.81l-2.68-18.32h51.72c4.75,0,8.62-3.86,8.62-8.62V18.01c0-4.75-3.86-8.62-8.62-8.62ZM60.58,137.7l2.57-18.32h23.58l2.69,18.32h-28.83Zm86.52-26.94c0,3.15-2.56,5.72-5.72,5.72H8.62c-3.15,0-5.72-2.56-5.72-5.72v-10.31H147.1v10.31Zm0-13.21H2.9V29.12H147.1V97.55Zm0-71.34H2.9v-8.2c0-3.15,2.56-5.72,5.72-5.72H141.38c3.15,0,5.72,2.56,5.72,5.72v8.2Z"/><path class="c" d="M2.9,29.12V97.55H147.1V29.12H2.9Zm52.88,48.09v9.42c0,.58-.28,1.12-.77,1.44-.3,.2-.63,.3-.98,.3-.22,0-.44-.04-.65-.13l-21.25-8.54v5.71c0,1.71-1.39,3.09-3.1,3.09h-3.04c-1.71,0-3.1-1.39-3.1-3.09v-6.41h-1.79c-3.78,0-6.86-3.08-6.86-6.86v-2.34c0-3.78,3.08-6.86,6.86-6.86h9.28l22.98-9.42c.54-.22,1.15-.16,1.64,.17,.48,.32,.77,.86,.77,1.45v9.61c2.83,.66,4.95,3.2,4.95,6.23s-2.12,5.56-4.95,6.23Zm6.48-14.52l3.14-3.14c.57-.56,1.49-.56,2.05,0,.56,.57,.56,1.49,0,2.05l-3.14,3.14c-.28,.28-.66,.42-1.03,.42s-.74-.15-1.02-.42c-.57-.57-.57-1.49,0-2.05Zm5.54,20.49c-.28,.28-.66,.42-1.03,.42s-.74-.14-1.03-.42l-3.14-3.14c-.57-.56-.57-1.49,0-2.05,.56-.57,1.49-.57,2.05,0l3.14,3.14c.56,.57,.56,1.49,0,2.05Zm6.52-10.75h-9.4c-.8,0-1.45-.65-1.45-1.45s.65-1.45,1.45-1.45h9.4c.8,0,1.45,.65,1.45,1.45s-.65,1.45-1.45,1.45Zm63,11.98c0,2.33-1.89,4.22-4.22,4.22h-29.35c-2.33,0-4.22-1.89-4.22-4.22v-17.58h-6.85l-5.9,5.9-.95-.36c-.56-.23-.92-.77-.92-1.38v-4.16h-2.63c-1.02,0-1.85-.83-1.85-1.85v-25.08c0-1.02,.83-1.85,1.85-1.85h39.85c1.17,0,2.12,.95,2.12,2.12v19.43h8.84c2.33,0,4.22,1.89,4.22,4.22v20.6Z"/><path class="g" d="M141.38,12.3H8.62c-3.15,0-5.72,2.56-5.72,5.72v8.2H147.1v-8.2c0-3.15-2.56-5.72-5.72-5.72Zm-24.72,9.32c-1.13,0-2.05-.91-2.05-2.04s.92-2.04,2.05-2.04,2.04,.91,2.04,2.04-.91,2.04-2.04,2.04Zm10.24,0c-1.13,0-2.04-.91-2.04-2.04s.92-2.04,2.04-2.04,2.05,.91,2.05,2.04-.92,2.04-2.05,2.04Zm10.24,0c-1.13,0-2.05-.91-2.05-2.04s.92-2.04,2.05-2.04,2.04,.91,2.04,2.04-.92,2.04-2.04,2.04Z"/><polygon class="b" points="89.41 137.7 60.58 137.7 63.15 119.38 86.72 119.38 89.41 137.7"/><path class="b" d="M147.1,100.45v10.31c0,3.15-2.56,5.72-5.72,5.72H8.62c-3.15,0-5.72-2.56-5.72-5.72v-10.31H147.1Z"/><path d="M109.71,49.22c0,.8-.65,1.45-1.45,1.45h-19.6c-.81,0-1.45-.65-1.45-1.45s.64-1.45,1.45-1.45h19.6c.8,0,1.45,.65,1.45,1.45Z"/><path d="M101.99,56.02c0,.8-.65,1.45-1.45,1.45h-11.88c-.81,0-1.45-.65-1.45-1.45s.64-1.45,1.45-1.45h11.88c.8,0,1.45,.65,1.45,1.45Z"/><path d="M125.93,72.6l-10.13-5.67c-.53-.3-1.19-.29-1.72,.02-.53,.31-.85,.88-.85,1.49v11.33c0,.61,.32,1.18,.85,1.49,.27,.16,.57,.24,.88,.24s.58-.08,.84-.22l10.13-5.67c.55-.3,.88-.88,.88-1.51s-.34-1.2-.88-1.5Zm-9.79,5.17v-7.33l6.55,3.67-6.55,3.66Z"/><path d="M55.79,64.76v-9.61c0-.59-.29-1.13-.77-1.45-.49-.32-1.1-.39-1.64-.17l-22.98,9.42h-9.28c-3.78,0-6.86,3.08-6.86,6.86v2.34c0,3.78,3.08,6.86,6.86,6.86h1.79v6.41c0,1.71,1.39,3.09,3.1,3.09h3.04c1.71,0,3.1-1.39,3.1-3.09v-5.71l21.25,8.54c.21,.09,.43,.13,.65,.13,.35,0,.68-.1,.98-.3,.48-.32,.77-.86,.77-1.44v-9.42c2.83-.66,4.95-3.2,4.95-6.23s-2.12-5.56-4.95-6.23Zm-26.55,20.66c0,.1-.09,.19-.2,.19h-3.04c-.11,0-.2-.09-.2-.19v-6.41h3.44v6.41Zm0-9.31h-8.12c-2.18,0-3.96-1.78-3.96-3.96v-2.34c0-2.18,1.78-3.96,3.96-3.96h8.12v10.26Zm23.65,8.8l-20.74-8.33v-11.2l11.12-4.56v13.98c0,.8,.65,1.45,1.45,1.45s1.45-.65,1.45-1.45v-15.17l6.73-2.76v28.04Zm2.9-10.75v-6.36c1.21,.56,2.05,1.77,2.05,3.18s-.84,2.63-2.05,3.18Z"/><path class="f" d="M57.83,70.98c0,1.41-.84,2.63-2.05,3.18v-6.36c1.21,.56,2.05,1.77,2.05,3.18Z"/><path class="f" d="M29.24,79.01v6.41c0,.1-.09,.19-.2,.19h-3.04c-.11,0-.2-.09-.2-.19v-6.41h3.44Z"/><path class="f" d="M29.24,65.85v10.26h-8.12c-2.18,0-3.96-1.78-3.96-3.96v-2.34c0-2.18,1.78-3.96,3.96-3.96h8.12Z"/><path class="d" d="M52.88,56.87v28.04l-20.74-8.33v-11.2l11.12-4.56v13.98c0,.8,.65,1.45,1.45,1.45s1.45-.65,1.45-1.45v-15.17l6.73-2.76Z"/><path d="M75.77,70.98c0,.8-.65,1.45-1.45,1.45h-9.4c-.8,0-1.45-.65-1.45-1.45s.65-1.45,1.45-1.45h9.4c.8,0,1.45,.65,1.45,1.45Z"/><path d="M67.46,61.59l-3.14,3.14c-.28,.28-.66,.42-1.03,.42s-.74-.15-1.02-.42c-.57-.57-.57-1.49,0-2.05l3.14-3.14c.57-.56,1.49-.56,2.05,0,.56,.57,.56,1.49,0,2.05Z"/><path d="M67.81,83.18c-.28,.28-.66,.42-1.03,.42s-.74-.14-1.03-.42l-3.14-3.14c-.57-.56-.57-1.49,0-2.05,.56-.57,1.49-.57,2.05,0l3.14,3.14c.56,.57,.56,1.49,0,2.05Z"/><path d="M133.1,59.59h-8.84v-19.43c0-1.17-.95-2.12-2.12-2.12h-39.85c-1.02,0-1.85,.83-1.85,1.85v25.08c0,1.02,.83,1.85,1.85,1.85h2.63v4.16c0,.61,.37,1.15,.92,1.38l.95,.36,5.9-5.9h6.85v17.58c0,2.33,1.89,4.22,4.22,4.22h29.35c2.33,0,4.22-1.89,4.22-4.22v-20.6c0-2.33-1.89-4.22-4.22-4.22Zm-33.57,4.22v.12h-7.37c-.44,0-.85,.17-1.15,.48l-3.19,3.19v-2.03c0-.91-.74-1.64-1.64-1.64h-2.84v-22.98h38.02v18.64h-17.61c-2.33,0-4.22,1.89-4.22,4.22Zm34.89,20.6c0,.73-.59,1.32-1.32,1.32h-29.35c-.73,0-1.32-.59-1.32-1.32v-20.6c0-.73,.59-1.32,1.32-1.32h29.35c.73,0,1.32,.59,1.32,1.32v20.6Z"/><path class="g" d="M133.1,62.49h-29.35c-.73,0-1.32,.59-1.32,1.32v20.6c0,.73,.59,1.32,1.32,1.32h29.35c.73,0,1.32-.59,1.32-1.32v-20.6c0-.73-.59-1.32-1.32-1.32Zm-7.17,13.13l-10.13,5.67c-.26,.15-.55,.22-.84,.22s-.61-.08-.88-.24c-.53-.31-.85-.88-.85-1.49v-11.33c0-.61,.32-1.18,.85-1.49,.53-.31,1.18-.31,1.72-.02l10.13,5.67c.54,.3,.88,.88,.88,1.5s-.34,1.21-.88,1.51Z"/><polygon class="c" points="122.68 74.11 116.14 77.77 116.14 70.44 122.68 74.11"/><path class="e" d="M83.34,40.94v22.98h2.84c.9,0,1.64,.74,1.64,1.64v2.03l3.19-3.19c.31-.31,.72-.48,1.15-.48h7.37v-.12c0-2.33,1.89-4.22,4.22-4.22h17.61v-18.64h-38.02Zm17.2,16.53h-11.88c-.81,0-1.45-.65-1.45-1.45s.64-1.45,1.45-1.45h11.88c.8,0,1.45,.65,1.45,1.45s-.65,1.45-1.45,1.45Zm7.72-6.8h-19.6c-.81,0-1.45-.65-1.45-1.45s.64-1.45,1.45-1.45h19.6c.8,0,1.45,.65,1.45,1.45s-.65,1.45-1.45,1.45Z"/></svg>