<?xml version="1.0" encoding="UTF-8"?><svg id="a" xmlns="http://www.w3.org/2000/svg" viewBox="0 0 150 150"><defs><style>.b{fill:#72c2e9;}.c{fill:#13bf6d;}.d{fill:#f0c020;}.e{fill:#fb5e3d;}.f{fill:#efefef;}.g{fill:#5592a5;}</style></defs><path d="M141.38,9.39H8.62C3.86,9.39,0,13.26,0,18.01V110.76c0,4.75,3.86,8.62,8.62,8.62H60.22l-2.57,18.32h-9.15c-.8,0-1.45,.65-1.45,1.45s.65,1.45,1.45,1.45h51.65c.8,0,1.45-.65,1.45-1.45s-.65-1.45-1.45-1.45h-7.8l-2.68-18.32h51.72c4.75,0,8.62-3.86,8.62-8.62V18.01c0-4.75-3.86-8.62-8.62-8.62ZM60.58,137.7l2.57-18.32h23.58l2.69,18.32h-28.83Zm86.52-26.94c0,3.15-2.56,5.72-5.72,5.72H8.62c-3.15,0-5.72-2.56-5.72-5.72v-10.11H147.1v10.11Zm0-13.01H2.9V18.01c0-3.15,2.56-5.72,5.72-5.72H141.38c3.15,0,5.72,2.56,5.72,5.72V97.75Z"/><polygon class="g" points="89.41 137.7 60.58 137.7 63.15 119.38 86.72 119.38 89.41 137.7"/><path class="b" d="M141.38,12.3H8.62c-3.15,0-5.72,2.56-5.72,5.72V97.75H147.1V18.01c0-3.15-2.56-5.72-5.72-5.72Zm-30.08,59.18l-4.23,5.02c-.26,.3-.62,.49-1.01,.51-.03,0-.07,0-.1,0-.35,0-.7-.13-.97-.37l-4.21-3.78v12.03c0,2.59-2.11,4.69-4.69,4.69H21.74c-2.59,0-4.7-2.11-4.7-4.69V26.57c0-2.59,2.11-4.7,4.7-4.7H96.09c2.59,0,4.69,2.11,4.69,4.7v30.61h7.21c.59,0,1.13,.36,1.35,.91,.22,.56,.08,1.18-.35,1.6l-3.96,3.73,6.19,6.09c.54,.53,.58,1.39,.09,1.97Zm22.24,15.15c0,1.63-1.33,2.96-2.96,2.96h-12.08c-1.63,0-2.96-1.33-2.96-2.96v-12.08c0-1.63,1.33-2.96,2.96-2.96h12.08c1.63,0,2.96,1.33,2.96,2.96v12.08Zm0-24.86c0,1.63-1.33,2.96-2.96,2.96h-12.08c-1.63,0-2.96-1.33-2.96-2.96v-12.08c0-1.64,1.33-2.97,2.96-2.97h12.08c1.63,0,2.96,1.33,2.96,2.97v12.08Zm0-24.86c0,1.64-1.33,2.97-2.96,2.97h-12.08c-1.63,0-2.96-1.33-2.96-2.97v-12.08c0-1.64,1.33-2.96,2.96-2.96h12.08c1.63,0,2.96,1.33,2.96,2.96v12.08Z"/><path class="g" d="M147.1,100.66v10.11c0,3.15-2.56,5.72-5.72,5.72H8.62c-3.15,0-5.72-2.56-5.72-5.72v-10.11H147.1Z"/><path d="M92.56,29.99c0,1.13-.92,2.05-2.05,2.05s-2.04-.92-2.04-2.05,.91-2.04,2.04-2.04,2.05,.92,2.05,2.04Z"/><path d="M82.59,29.99c0,1.13-.92,2.05-2.04,2.05s-2.05-.92-2.05-2.05,.92-2.04,2.05-2.04,2.04,.92,2.04,2.04Z"/><path d="M111.21,69.51l-6.19-6.09,3.96-3.73c.44-.41,.57-1.04,.35-1.6-.22-.55-.75-.91-1.35-.91h-7.21V26.57c0-2.59-2.11-4.7-4.69-4.7H21.74c-2.59,0-4.7,2.11-4.7,4.7v58.32c0,2.59,2.11,4.69,4.7,4.69H96.09c2.59,0,4.69-2.11,4.69-4.69v-12.03l4.21,3.78c.27,.24,.62,.37,.97,.37,.03,0,.07,0,.1,0,.39-.02,.75-.21,1.01-.51l4.23-5.02c.49-.58,.45-1.44-.09-1.97Zm-15.12-44.74c.99,0,1.79,.81,1.79,1.8v8.31H43.8c-.49,0-.95-.29-1.17-.74l-4.47-9.37h57.93Zm1.79,60.12c0,.99-.8,1.79-1.79,1.79H21.74c-.99,0-1.8-.81-1.8-1.79V26.57c0-.99,.81-1.8,1.8-1.8h13.21l5.07,10.62c.69,1.45,2.18,2.38,3.78,2.38h54.08v19.4h-5.23c-.8,0-1.45,.65-1.45,1.45v14.4c0,.58,.35,1.1,.88,1.33,.53,.23,1.15,.12,1.57-.28l4.11-3.93,.11,.1v14.63Zm7.93-11.41l-7.1-6.38c-.27-.24-.62-.37-.97-.37s-.72,.13-1,.4l-2.63,2.52v-9.56h10.23l-2.4,2.25c-.28,.27-.45,.65-.45,1.04s.15,.77,.43,1.05l6.31,6.2-2.41,2.85Z"/><path class="f" d="M108.22,70.63l-2.41,2.85-7.1-6.38c-.27-.24-.62-.37-.97-.37s-.72,.13-1,.4l-2.63,2.52v-9.56h10.23l-2.4,2.25c-.28,.27-.45,.65-.45,1.04s.15,.77,.43,1.05l6.31,6.2Z"/><path class="e" d="M96.09,24.77H38.16l4.47,9.37c.21,.45,.67,.74,1.17,.74h54.08v-8.31c0-.99-.8-1.8-1.79-1.8Zm-15.54,7.26c-1.13,0-2.05-.92-2.05-2.05s.92-2.04,2.05-2.04,2.04,.92,2.04,2.04-.92,2.05-2.04,2.05Zm9.96,0c-1.13,0-2.04-.92-2.04-2.05s.91-2.04,2.04-2.04,2.05,.92,2.05,2.04-.92,2.05-2.05,2.05Z"/><path class="d" d="M92.65,57.18h5.23v-19.4H43.8c-1.61,0-3.09-.93-3.78-2.38l-5.07-10.62h-13.21c-.99,0-1.8,.81-1.8,1.8v58.32c0,.99,.81,1.79,1.8,1.79H96.09c.99,0,1.79-.81,1.79-1.79v-14.63l-.11-.1-4.11,3.93c-.42,.4-1.04,.51-1.57,.28-.53-.23-.88-.75-.88-1.33v-14.4c0-.8,.65-1.45,1.45-1.45Zm-9.23,23.11H34.18c-.8,0-1.45-.65-1.45-1.45s.65-1.45,1.45-1.45h49.25c.8,0,1.45,.65,1.45,1.45s-.65,1.45-1.45,1.45Zm0-6.97H34.18c-.8,0-1.45-.65-1.45-1.45s.65-1.45,1.45-1.45h49.25c.8,0,1.45,.65,1.45,1.45s-.65,1.45-1.45,1.45Zm1.46-10.16c0,1.24-1.01,2.25-2.25,2.25H34.52c-1.24,0-2.25-1.01-2.25-2.25v-18.26c0-1.24,1.01-2.25,2.25-2.25h48.11c1.24,0,2.25,1.01,2.25,2.25v18.26Z"/><path d="M82.63,42.65H34.52c-1.24,0-2.25,1.01-2.25,2.25v18.26c0,1.24,1.01,2.25,2.25,2.25h48.11c1.24,0,2.25-1.01,2.25-2.25v-18.26c0-1.24-1.01-2.25-2.25-2.25Zm-.65,19.86H35.17v-16.96h46.81v16.96Z"/><rect class="f" x="35.17" y="45.56" width="46.81" height="16.96"/><path d="M84.87,71.88c0,.8-.65,1.45-1.45,1.45H34.18c-.8,0-1.45-.65-1.45-1.45s.65-1.45,1.45-1.45h49.25c.8,0,1.45,.65,1.45,1.45Z"/><path d="M84.87,78.84c0,.8-.65,1.45-1.45,1.45H34.18c-.8,0-1.45-.65-1.45-1.45s.65-1.45,1.45-1.45h49.25c.8,0,1.45,.65,1.45,1.45Z"/><path d="M130.58,21.87h-12.08c-1.63,0-2.96,1.33-2.96,2.96v12.08c0,1.64,1.33,2.97,2.96,2.97h12.08c1.63,0,2.96-1.33,2.96-2.97v-12.08c0-1.64-1.33-2.96-2.96-2.96Zm.06,15.04s-.03,.06-.06,.06h-12.08s-.06-.03-.06-.06v-12.08s.03-.06,.06-.06h12.08s.06,.03,.06,.06v12.08Z"/><path class="e" d="M130.64,24.83v12.08s-.03,.06-.06,.06h-12.08s-.06-.03-.06-.06v-12.08s.03-.06,.06-.06h12.08s.06,.03,.06,.06Z"/><path d="M130.58,46.73h-12.08c-1.63,0-2.96,1.33-2.96,2.97v12.08c0,1.63,1.33,2.96,2.96,2.96h12.08c1.63,0,2.96-1.33,2.96-2.96v-12.08c0-1.64-1.33-2.97-2.96-2.97Zm.06,15.04s-.03,.06-.06,.06h-12.08s-.06-.02-.06-.06v-12.08s.03-.06,.06-.06h12.08s.06,.03,.06,.06v12.08Z"/><path class="c" d="M130.64,49.69v12.08s-.03,.06-.06,.06h-12.08s-.06-.02-.06-.06v-12.08s.03-.06,.06-.06h12.08s.06,.03,.06,.06Z"/><path d="M130.58,71.59h-12.08c-1.63,0-2.96,1.33-2.96,2.96v12.08c0,1.63,1.33,2.96,2.96,2.96h12.08c1.63,0,2.96-1.33,2.96-2.96v-12.08c0-1.63-1.33-2.96-2.96-2.96Zm.06,15.04s-.03,.06-.06,.06h-12.08s-.06-.03-.06-.06v-12.08s.03-.06,.06-.06h12.08s.06,.03,.06,.06v12.08Z"/><rect class="d" x="118.44" y="74.49" width="12.2" height="12.2" rx=".06" ry=".06"/></svg>